<svg width="30" height="30" viewBox="0 0 30 30" fill="none" xmlns="http://www.w3.org/2000/svg">
<path d="M19.95 22.05L22.05 19.95L16.5 14.4V7.5H13.5V15.6L19.95 22.05ZM15 30C12.925 30 10.975 29.6063 9.15 28.8188C7.325 28.0313 5.7375 26.9625 4.3875 25.6125C3.0375 24.2625 1.96875 22.675 1.18125 20.85C0.39375 19.025 0 17.075 0 15C0 12.925 0.39375 10.975 1.18125 9.15C1.96875 7.325 3.0375 5.7375 4.3875 4.3875C5.7375 3.0375 7.325 1.96875 9.15 1.18125C10.975 0.39375 12.925 0 15 0C17.075 0 19.025 0.39375 20.85 1.18125C22.675 1.96875 24.2625 3.0375 25.6125 4.3875C26.9625 5.7375 28.0313 7.325 28.8188 9.15C29.6063 10.975 30 12.925 30 15C30 17.075 29.6063 19.025 28.8188 20.85C28.0313 22.675 26.9625 24.2625 25.6125 25.6125C24.2625 26.9625 22.675 28.0313 20.85 28.8188C19.025 29.6063 17.075 30 15 30ZM15 27C18.325 27 21.1562 25.8312 23.4937 23.4937C25.8312 21.1562 27 18.325 27 15C27 11.675 25.8312 8.84375 23.4937 6.50625C21.1562 4.16875 18.325 3 15 3C11.675 3 8.84375 4.16875 6.50625 6.50625C4.16875 8.84375 3 11.675 3 15C3 18.325 4.16875 21.1562 6.50625 23.4937C8.84375 25.8312 11.675 27 15 27Z" fill="#FF5540"/>
</svg>
