<svg width="21" height="24" viewBox="0 0 21 24" fill="none" xmlns="http://www.w3.org/2000/svg">
<path d="M6.00012 3H9.00012V0H6.00012V3ZM12.0001 3V0H15.0001V3H12.0001ZM6.00012 15V12H9.00012V15H6.00012ZM18.0001 9V6H21.0001V9H18.0001ZM18.0001 15V12H21.0001V15H18.0001ZM12.0001 15V12H15.0001V15H12.0001ZM18.0001 3V0H21.0001V3H18.0001ZM9.00012 6V3H12.0001V6H9.00012ZM0.00012207 24V0H3.00012V3H6.00012V6H3.00012V9H6.00012V12H3.00012V24H0.00012207ZM15.0001 12V9H18.0001V12H15.0001ZM9.00012 12V9H12.0001V12H9.00012ZM6.00012 9V6H9.00012V9H6.00012ZM12.0001 9V6H15.0001V9H12.0001ZM15.0001 6V3H18.0001V6H15.0001Z" fill="#FF5540"/>
</svg>
